#N canvas 183 117 1059 543 10;
#X floatatom 529 184 5 0 0 0 - - #0-aiX;
#X floatatom 564 184 5 0 0 0 - - #0-aiY;
#X obj 359 306 pack;
#X msg 393 289 bang;
#X floatatom 636 84 5 0 0 0 - - #0-abdX;
#X floatatom 672 84 5 0 0 0 - - #0-abdY;
#X obj 463 459 pack;
#X msg 496 442 bang;
#X obj -81 -10 inlet;
#X floatatom 636 184 5 0 0 0 - - #0-adX;
#X floatatom 671 184 5 0 0 0 - - #0-adY;
#X obj 463 306 pack;
#X msg 498 289 bang;
#X floatatom 528 84 5 0 0 0 - - #0-abiX;
#X floatatom 564 84 5 0 0 0 - - #0-abiY;
#X obj 359 459 pack;
#X msg 393 442 bang;
#N canvas 0 0 396 384 reader 0;
#X obj 153 214 tabread \$0-settings;
#X obj 107 -11 inlet;
#X obj 107 11 * 8;
#X msg 107 68 0;
#X text 141 -14 get the index of setting 0 - 49;
#X obj 107 99 f;
#X obj 107 37 t b f;
#X obj 153 181 +;
#X obj 107 134 moses 8;
#X obj 59 70 + 1;
#X obj 126 244 pack;
#X obj 126 279 route 0 1 2 3 4 5 6 7;
#X obj 12 321 outlet;
#X obj 56 321 outlet;
#X obj 100 321 outlet;
#X obj 143 321 outlet;
#X obj 187 321 outlet;
#X obj 231 321 outlet;
#X obj 275 321 outlet;
#X obj 318 321 outlet;
#X obj 107 159 t f f f;
#X connect 0 0 10 1;
#X connect 1 0 2 0;
#X connect 2 0 6 0;
#X connect 3 0 5 0;
#X connect 5 0 8 0;
#X connect 6 0 3 0;
#X connect 6 1 7 1;
#X connect 7 0 0 0;
#X connect 8 0 20 0;
#X connect 9 0 5 0;
#X connect 10 0 11 0;
#X connect 11 0 12 0;
#X connect 11 1 13 0;
#X connect 11 2 14 0;
#X connect 11 3 15 0;
#X connect 11 4 16 0;
#X connect 11 5 17 0;
#X connect 11 6 18 0;
#X connect 11 7 19 0;
#X connect 20 0 9 0;
#X connect 20 1 10 0;
#X connect 20 2 7 0;
#X restore 828 67 pd reader --------;
#N canvas 72 99 528 311 writer 0;
#X obj 17 9 inlet;
#X obj 64 9 inlet;
#X obj 106 9 inlet;
#X obj 143 9 inlet;
#X obj 184 9 inlet;
#X obj 231 9 inlet;
#X obj 273 8 inlet;
#X obj 310 8 inlet;
#X msg 44 92 0;
#X obj 17 68 t f b;
#X obj 181 241 +;
#X obj 442 23 inlet;
#X obj 64 70 t f b;
#X msg 91 94 1;
#X obj 106 69 t f b;
#X obj 143 69 t f b;
#X obj 184 67 t f b;
#X obj 231 69 t f b;
#X obj 273 68 t f b;
#X obj 310 68 t f b;
#X msg 133 94 2;
#X msg 170 93 3;
#X msg 211 91 4;
#X msg 258 93 5;
#X msg 300 92 6;
#X msg 337 92 7;
#X obj 64 269 tabwrite \$0-settings;
#X obj 16 40 f;
#X obj 64 40 f;
#X obj 106 40 f;
#X obj 150 40 f;
#X obj 184 40 f;
#X obj 231 40 f;
#X obj 273 40 f;
#X obj 310 40 f;
#X obj 336 171 * 8;
#X obj 486 22 inlet;
#X obj 486 50 t b b;
#X msg 382 142 \; pd-b4plane.pd menusave;
#X text 384 173 store the abstaction with;
#X text 384 185 the data on harddisk;
#X connect 0 0 27 1;
#X connect 1 0 28 1;
#X connect 2 0 29 1;
#X connect 3 0 30 1;
#X connect 4 0 31 1;
#X connect 5 0 32 1;
#X connect 6 0 33 1;
#X connect 7 0 34 1;
#X connect 8 0 10 0;
#X connect 9 0 26 0;
#X connect 9 1 8 0;
#X connect 10 0 26 1;
#X connect 11 0 35 0;
#X connect 12 0 26 0;
#X connect 12 1 13 0;
#X connect 13 0 10 0;
#X connect 14 0 26 0;
#X connect 14 1 20 0;
#X connect 15 0 26 0;
#X connect 15 1 21 0;
#X connect 16 0 26 0;
#X connect 16 1 22 0;
#X connect 17 0 26 0;
#X connect 17 1 23 0;
#X connect 18 0 26 0;
#X connect 18 1 24 0;
#X connect 19 0 26 0;
#X connect 19 1 25 0;
#X connect 20 0 10 0;
#X connect 21 0 10 0;
#X connect 22 0 10 0;
#X connect 23 0 10 0;
#X connect 24 0 10 0;
#X connect 25 0 10 0;
#X connect 27 0 9 0;
#X connect 28 0 12 0;
#X connect 29 0 14 0;
#X connect 30 0 15 0;
#X connect 31 0 16 0;
#X connect 32 0 17 0;
#X connect 33 0 18 0;
#X connect 34 0 19 0;
#X connect 35 0 10 1;
#X connect 36 0 37 0;
#X connect 37 0 38 0;
#X connect 37 1 34 0;
#X connect 37 1 33 0;
#X connect 37 1 32 0;
#X connect 37 1 31 0;
#X connect 37 1 30 0;
#X connect 37 1 29 0;
#X connect 37 1 28 0;
#X connect 37 1 27 0;
#X restore 671 303 pd writer ------;
#X obj 765 67 bng 20 250 50 0 empty empty empty 17 7 0 10 -261234 -262144
-1;
#N canvas 107 162 446 215 storage 0;
#N canvas 172 35 450 300 (subpatch) 0;
#X array \$0-settings 400 float 3;
#A 0 -5 -5 5 -5 5 5 -5 5 -0.0333333 -0.0333333 -0.0333333 -0.0333333
-0.0333333 -0.0333333 -0.0333333 -0.0333333 -0.0333333 -0.0333333 -0.0333333
-0.0333333 -0.0333333 -0.0333333 -0.0333333 -0.0333333 -0.0333333 -0.0333333
-0.0333333 -0.0333333 -0.0333333 -0.0333333 -0.0333333 -0.0333333 -0.0333333
-0.0333333 -0.0333333 -0.0333333 -0.0333333 -0.0333333 -0.0333333 -0.0333333
-0.0333333 -0.0333333 -0.0333333 -0.0333333 -0.0333333 -0.0333333 -0.0333333
-0.0333333 -0.0333333 -0.0333333 -0.0333333 -0.0333333 -0.0333333 -0.0333333
-0.0333333 -0.0333333 -0.0333333 -0.0333333 -0.0333333 -0.0333333 -0.0333333
-0.0333333 -0.0333333 -0.0333333 -0.0333333 -0.0333333 -0.0333333 -0.0333333
-0.0333333 -0.0333333 -0.0333333 -0.0333333 -0.0333333 -0.0333333 -0.0333333
-0.0333333 -0.0333333 -0.0333333 -0.0333333 -0.0333333 -0.0333333 -0.0333333
-0.0333333 -0.0333333 -0.0333333 -0.0333333 -0.0333333 -0.0333333 -0.0333333
-0.0333333 -0.0333333 -0.0333333 -0.0333333 -0.0333333 -0.0333333 -0.0333333
-0.0333333 -0.0333333 -0.0333333 -0.0333333 -0.0333333 -0.0333333 -0.0333333
-0.0333333 -0.0333333 -0.0333333 -0.0333333 -0.0333333 -0.0333333 -0.0333333
-0.0333333 -0.0333333 -0.0333333 -0.0333333 -0.0333333 -0.0333333 -0.0333333
-0.0333333 -0.0333333 -0.0333333 -0.0333333 -0.0333333 -0.0333333 -0.0333333
-0.0333333 -0.0333333 -0.0333333 -0.0333333 -0.0333333 -0.0333333 -0.0333333
-0.0333333 -0.0333333 -0.0333333 0 0 0 0 0 0 0 0 0 0 0 0 0 0 0 0 0
0 0 0 0 0 0 0 0 0 0 0 0 0 0 0 0 0 0 0 0 0 0 0 0 0 0 0 0 0 0 0 0 0 0
0 0 0 0 0 0 0 0 0 0 0 0 0 0 0 0 0 0 0 0 0 0 0 0 0 0 0 0 0 0 0 0 0 0
0 0 0 0 0 0 0 0 0 0 0 0 0 0 0 0 0 0 0 0 0 0 0 0 0 0 0 0 0 0 0 0 0 0
0 0 0 0 0 0 0 0 0 0 0 0 0 0 0 0 0 0 0 0 0 0 0 0 0 0 0 0 0 0 0 0 0 0
0 0 0 0 0 0 0 0 0 0 0 0 0 0 0 0 0 0 0 0 0 0 0 0 0 0 0 0 0 0 0 0 0 0
0 0 0 0 0 0 0 0 0 0 0 0 0 0 0 0 0 0 0 0 0 0 0 0 0 0 0 0 0 0 0 0 0 0
0 0 0 0 0 0 0 0 0 0 0 0 0 0 0 0 0 0 0 0 0 0 0 0 0 0 0 0 0 0 0 0 0 0
0 0 0 0 0 0 0 0 0 0 0;
#X coords 0 10 400 -10 400 140 1 0 0;
#X restore 14 26 graph;
#X restore 708 472 pd storage;
#X obj 765 47 bng 20 250 50 0 empty empty empty 17 7 0 10 -204786 -1
-1;
#X obj 805 67 f;
#X obj 124 -10 gemhead;
#X obj -81 103 spigot;
#X obj 124 418 spigot;
#X obj 368 25 tgl 15 0 \$0-plano empty Plano -6 -6 0 10 -232576 -1
-1 0 1;
#X obj -48 40 expr !$f1;
#X obj -48 62 tgl 15 0 empty empty empty 17 7 0 10 -262144 -1 -1 1
1;
#X msg -80 463 draw fill;
#X obj 124 498 curve3d;
#X msg -80 481 grid 40 40;
#X obj -80 445 loadbang;
#X msg 359 331 set 1 0 \$1 \$2 0;
#X msg 463 329 set 0 0 \$1 \$2 0;
#X msg 463 481 set 0 1 \$1 \$2 0;
#X msg 359 481 set 1 1 \$1 \$2 0;
#X msg 252 8 0;
#X obj 252 -10 loadbang;
#X obj 372 94 hsl 128 10 -5 5 0 0 \$0-tX empty Posición -2 -8 0 10
-261682 -1 -1 6350 1;
#X obj 372 108 hsl 128 10 -5 5 0 0 \$0-tY empty empty -2 -8 0 10 -261682
-1 -1 6350 1;
#X obj 372 122 hsl 128 10 -5 5 0 0 \$0-tZ empty empty -2 -8 0 10 -261682
-1 -1 6350 1;
#X obj 372 157 hsl 128 10 0 360 0 0 \$0-rX empty Rotación -2 -8 0
10 -203904 -1 -1 0 1;
#X obj 372 171 hsl 128 10 0 360 0 0 \$0-rY empty empty -2 -8 0 10 -203904
-1 -1 0 1;
#X obj 372 185 hsl 128 10 0 360 0 0 \$0-rZ empty empty -2 -8 0 10 -203904
-1 -1 0 1;
#X text 355 89 X;
#X text 355 152 X;
#X text 355 103 Y;
#X text 355 117 Z;
#X text 355 166 Y;
#X text 355 179 Z;
#X obj 372 61 hsl 128 10 0 50 0 0 \$0-sX empty Escala -2 -8 0 10 -262130
-1 -1 254 1;
#X floatatom 21 250 5 0 0 0 - #0-rX -;
#X floatatom 54 250 5 0 0 0 - #0-rY -;
#X floatatom 87 250 5 0 0 0 - #0-rZ -;
#X floatatom 20 197 5 0 0 0 - #0-tX -;
#X floatatom 53 197 5 0 0 0 - #0-tY -;
#X floatatom 86 197 5 0 0 0 - #0-tZ -;
#X obj -81 266 rotateXYZ 0 0 0;
#X obj -81 213 translateXYZ 0 0 0;
#X obj -81 162 scale;
#X floatatom 21 146 5 0 0 0 - #0-sX -;
#X obj 157 390 tgl 15 0 empty \$0-plano empty 17 7 0 10 -262144 -1
-1 0 1;
#N canvas 0 22 454 304 gemwin 0;
#X obj 132 136 gemwin;
#X obj 67 89 outlet;
#X obj 67 10 inlet;
#X obj 67 41 route create;
#X msg 67 70 set destroy;
#X msg 182 68 set create;
#X msg 132 112 create \, 1;
#X msg 238 112 destroy;
#N canvas 87 154 247 179 Gem.init 0;
#X obj 32 42 loadbang;
#X msg 32 77 reset;
#X obj 32 109 outlet;
#X msg 189 76 lighting 0;
#X msg 76 81 dimen 800 600;
#X connect 0 0 1 0;
#X connect 0 0 4 0;
#X connect 0 0 3 0;
#X connect 1 0 2 0;
#X connect 3 0 2 0;
#X connect 4 0 2 0;
#X restore 289 80 pd Gem.init;
#X connect 2 0 3 0;
#X connect 3 0 4 0;
#X connect 3 0 6 0;
#X connect 3 1 5 0;
#X connect 3 1 7 0;
#X connect 4 0 1 0;
#X connect 5 0 1 0;
#X connect 6 0 0 0;
#X connect 7 0 0 0;
#X connect 8 0 0 0;
#X restore 708 426 pd gemwin;
#X msg 708 402 create;
#X obj 708 382 bng 15 250 50 0 empty \$0-on empty 17 7 0 10 -262144
-1 -1;
#X obj 762 171 bng 25 250 50 0 \$0-on empty ON 3 -7 0 15 -128992 -1
-1;
#X text 757 32 cargar;
#X text 753 84 guardar;
#X obj 124 266 rotateXYZ 0 0 0;
#X obj 124 213 translateXYZ 0 0 0;
#X obj 124 162 scale;
#X obj 539 136 grid grid1 40 -5 5 40 -5 5 1 0.1 0.1 5 5 195 271;
#X msg 252 77 0;
#X msg 252 44 1;
#X obj 646 136 grid grid1 40 -5 5 40 -5 5 1 0.1 0.1 5 5 340 277;
#X obj 646 37 grid grid1 40 -5 5 40 -5 5 1 0.1 0.1 5 5 340 160;
#X obj 539 35 grid grid1 40 -5 5 40 -5 5 1 0.1 0.1 5 5 209 163;
#X text 510 15 Arriba Izquierda;
#X text 625 16 Arriba Derecha;
#X text 514 116 Abajo Izquierda;
#X text 627 117 Abajo Derecha;
#X obj 413 25 bng 15 250 50 0 \$0-reset empty empty 17 7 0 10 -228856
-1 -1;
#X text 404 10 Reset;
#X obj 235 29 bng 15 250 50 0 empty \$0-reset empty 17 7 0 10 -262144
-1 -1;
#X obj 746 51 nbx 1 15 0 49 0 0 empty empty empty 0 -8 0 10 -204786
-1 -1 0 256;
#X floatatom 359 266 5 0 0 0 - #0-aiX -;
#X floatatom 637 257 5 0 0 0 - aiX -;
#X floatatom 393 266 5 0 0 0 - #0-aiY -;
#X floatatom 637 239 5 0 0 0 - aiY -;
#X floatatom 669 257 5 0 0 0 - adX -;
#X floatatom 669 239 5 0 0 0 - adY -;
#X floatatom 463 266 5 0 0 0 - #0-adX -;
#X floatatom 498 266 5 0 0 0 - #0-adY -;
#X floatatom 701 257 5 0 0 0 - abdX -;
#X floatatom 701 239 5 0 0 0 - abdY -;
#X floatatom 463 421 5 0 0 0 - #0-abdX -;
#X floatatom 496 421 5 0 0 0 - #0-abdY -;
#X floatatom 359 422 5 0 0 0 - #0-abiX -;
#X floatatom 393 422 5 0 0 0 - #0-abiY -;
#X floatatom 733 257 5 0 0 0 - abiX -;
#X floatatom 733 239 5 0 0 0 - abiY -;
#X connect 2 0 33 0;
#X connect 3 0 2 0;
#X connect 6 0 35 0;
#X connect 7 0 6 0;
#X connect 8 0 24 0;
#X connect 11 0 34 0;
#X connect 12 0 11 0;
#X connect 15 0 36 0;
#X connect 16 0 15 0;
#X connect 17 0 0 0;
#X connect 17 1 1 0;
#X connect 17 2 9 0;
#X connect 17 3 10 0;
#X connect 17 4 4 0;
#X connect 17 5 5 0;
#X connect 17 6 13 0;
#X connect 17 7 14 0;
#X connect 19 0 18 9;
#X connect 21 0 22 0;
#X connect 22 0 17 0;
#X connect 23 0 71 0;
#X connect 24 0 60 0;
#X connect 25 0 30 0;
#X connect 26 0 27 0;
#X connect 27 0 28 0;
#X connect 28 0 24 1;
#X connect 29 0 30 0;
#X connect 31 0 30 0;
#X connect 32 0 29 0;
#X connect 32 0 31 0;
#X connect 33 0 30 0;
#X connect 34 0 30 0;
#X connect 35 0 30 0;
#X connect 36 0 30 0;
#X connect 37 0 26 0;
#X connect 38 0 37 0;
#X connect 38 0 73 0;
#X connect 38 0 74 0;
#X connect 52 0 58 1;
#X connect 52 0 69 1;
#X connect 53 0 58 2;
#X connect 53 0 69 2;
#X connect 54 0 58 3;
#X connect 54 0 69 3;
#X connect 55 0 59 1;
#X connect 55 0 70 1;
#X connect 56 0 59 2;
#X connect 56 0 70 2;
#X connect 57 0 59 3;
#X connect 57 0 70 3;
#X connect 58 0 30 0;
#X connect 59 0 58 0;
#X connect 60 0 59 0;
#X connect 61 0 60 1;
#X connect 61 0 71 1;
#X connect 62 0 25 1;
#X connect 63 0 64 0;
#X connect 64 0 63 0;
#X connect 65 0 64 0;
#X connect 69 0 25 0;
#X connect 70 0 69 0;
#X connect 71 0 70 0;
#X connect 72 0 0 0;
#X connect 72 1 1 0;
#X connect 73 0 39 0;
#X connect 73 0 40 0;
#X connect 73 0 41 0;
#X connect 73 0 42 0;
#X connect 73 0 43 0;
#X connect 73 0 44 0;
#X connect 74 0 51 0;
#X connect 75 0 9 0;
#X connect 75 1 10 0;
#X connect 76 0 4 0;
#X connect 76 1 5 0;
#X connect 77 0 13 0;
#X connect 77 1 14 0;
#X connect 84 0 74 0;
#X connect 84 0 73 0;
#X connect 85 0 18 8;
#X connect 85 0 22 1;
#X connect 86 0 2 0;
#X connect 87 0 18 0;
#X connect 88 0 3 0;
#X connect 88 0 2 1;
#X connect 89 0 18 1;
#X connect 90 0 18 2;
#X connect 91 0 18 3;
#X connect 92 0 11 0;
#X connect 93 0 12 0;
#X connect 93 0 11 1;
#X connect 94 0 18 4;
#X connect 95 0 18 5;
#X connect 96 0 6 0;
#X connect 97 0 7 0;
#X connect 97 0 6 1;
#X connect 98 0 15 0;
#X connect 99 0 16 0;
#X connect 99 0 15 1;
#X connect 100 0 18 6;
#X connect 101 0 18 7;
#X coords 0 -1 1 1 450 200 2 350 10;
