#N canvas 103 65 1059 543 10;
#X obj 359 306 pack;
#X msg 393 289 bang;
#X obj 463 459 pack;
#X msg 496 442 bang;
#X obj -81 -10 inlet;
#X obj 463 306 pack;
#X msg 498 289 bang;
#X obj 359 459 pack;
#X msg 393 442 bang;
#N canvas 266 46 396 384 reader 0;
#X obj 147 214 tabread \$0-settings;
#X obj 107 -11 inlet;
#X obj 107 11 * 8;
#X msg 107 68 0;
#X obj 107 99 f;
#X obj 107 37 t b f;
#X obj 147 183 +;
#X obj 107 134 moses 8;
#X obj 59 82 + 1;
#X obj 126 244 pack;
#X obj 126 279 route 0 1 2 3 4 5 6 7;
#X obj 12 321 outlet;
#X obj 56 321 outlet;
#X obj 100 321 outlet;
#X obj 143 321 outlet;
#X obj 187 321 outlet;
#X obj 231 321 outlet;
#X obj 275 321 outlet;
#X obj 318 321 outlet;
#X obj 107 159 t f f f;
#X connect 0 0 9 1;
#X connect 1 0 2 0;
#X connect 2 0 5 0;
#X connect 3 0 4 0;
#X connect 4 0 7 0;
#X connect 5 0 3 0;
#X connect 5 1 6 1;
#X connect 6 0 0 0;
#X connect 7 0 19 0;
#X connect 8 0 4 0;
#X connect 9 0 10 0;
#X connect 10 0 11 0;
#X connect 10 1 12 0;
#X connect 10 2 13 0;
#X connect 10 3 14 0;
#X connect 10 4 15 0;
#X connect 10 5 16 0;
#X connect 10 6 17 0;
#X connect 10 7 18 0;
#X connect 19 0 8 0;
#X connect 19 1 9 0;
#X connect 19 2 6 0;
#X restore 805 67 pd reader --------;
#N canvas 72 127 575 313 writer 0;
#X obj 17 9 inlet;
#X obj 64 9 inlet;
#X obj 106 9 inlet;
#X obj 143 9 inlet;
#X obj 184 9 inlet;
#X obj 231 9 inlet;
#X obj 273 8 inlet;
#X obj 310 8 inlet;
#X msg 44 112 0;
#X obj 17 88 t f b;
#X obj 161 252 +;
#X obj 362 7 inlet;
#X obj 64 90 t f b;
#X msg 91 114 1;
#X obj 106 89 t f b;
#X obj 143 89 t f b;
#X obj 184 87 t f b;
#X obj 231 89 t f b;
#X obj 273 88 t f b;
#X obj 310 88 t f b;
#X msg 133 114 2;
#X msg 170 113 3;
#X msg 211 111 4;
#X msg 258 113 5;
#X msg 300 112 6;
#X msg 337 112 7;
#X obj 17 269 tabwrite \$0-settings;
#X obj 16 57 f;
#X obj 64 57 f;
#X obj 106 57 f;
#X obj 150 57 f;
#X obj 184 57 f;
#X obj 231 57 f;
#X obj 273 57 f;
#X obj 310 57 f;
#X obj 362 235 * 8;
#X obj 402 9 inlet;
#X obj 402 40 t b b;
#X msg 402 142 \; pd-mapplano.pd menusave;
#X obj 38 36 bng 15 250 50 0 empty empty empty 17 7 0 10 -262144 -1
-1;
#X connect 0 0 27 1;
#X connect 0 0 39 0;
#X connect 1 0 28 1;
#X connect 2 0 29 1;
#X connect 3 0 30 1;
#X connect 4 0 31 1;
#X connect 5 0 32 1;
#X connect 6 0 33 1;
#X connect 7 0 34 1;
#X connect 8 0 10 0;
#X connect 9 0 26 0;
#X connect 9 1 8 0;
#X connect 10 0 26 1;
#X connect 11 0 35 0;
#X connect 12 0 26 0;
#X connect 12 1 13 0;
#X connect 13 0 10 0;
#X connect 14 0 26 0;
#X connect 14 1 20 0;
#X connect 15 0 26 0;
#X connect 15 1 21 0;
#X connect 16 0 26 0;
#X connect 16 1 22 0;
#X connect 17 0 26 0;
#X connect 17 1 23 0;
#X connect 18 0 26 0;
#X connect 18 1 24 0;
#X connect 19 0 26 0;
#X connect 19 1 25 0;
#X connect 20 0 10 0;
#X connect 21 0 10 0;
#X connect 22 0 10 0;
#X connect 23 0 10 0;
#X connect 24 0 10 0;
#X connect 25 0 10 0;
#X connect 27 0 9 0;
#X connect 28 0 12 0;
#X connect 29 0 14 0;
#X connect 30 0 15 0;
#X connect 31 0 16 0;
#X connect 32 0 17 0;
#X connect 33 0 18 0;
#X connect 34 0 19 0;
#X connect 35 0 10 1;
#X connect 36 0 37 0;
#X connect 37 0 38 0;
#X connect 37 1 34 0;
#X connect 37 1 33 0;
#X connect 37 1 32 0;
#X connect 37 1 31 0;
#X connect 37 1 30 0;
#X connect 37 1 29 0;
#X connect 37 1 28 0;
#X connect 37 1 27 0;
#X restore 671 303 pd writer ------;
#N canvas 107 162 446 215 storage 0;
#N canvas 172 35 450 300 (subpatch) 0;
#X array \$0-settings 400 float 3;
#A 0 -5 -5 5 -5 5 5 -5 5 0 0 0 0 0 0 0 0 0 0 0 0 0 0 0 0 -0.0333333
-0.0333333 -0.0333333 -0.0333333 -0.0333333 -0.0333333 -0.0333333 -0.0333333
-0.0333333 -0.0333333 -0.0333333 -0.0333333 -0.0333333 -0.0333333 -0.0333333
-0.0333333 -0.0333333 -0.0333333 -0.0333333 -0.0333333 -0.0333333 -0.0333333
-0.0333333 -0.0333333 -0.0333333 -0.0333333 -0.0333333 -0.0333333 -0.0333333
-0.0333333 -0.0333333 -0.0333333 -0.0333333 -0.0333333 -0.0333333 -0.0333333
-0.0333333 -0.0333333 -0.0333333 -0.0333333 -0.0333333 -0.0333333 -0.0333333
-0.0333333 -0.0333333 -0.0333333 -0.0333333 -0.0333333 -0.0333333 -0.0333333
-0.0333333 -0.0333333 -0.0333333 -0.0333333 -0.0333333 -0.0333333 -0.0333333
-0.0333333 -0.0333333 -0.0333333 -0.0333333 -0.0333333 -0.0333333 -0.0333333
-0.0333333 -0.0333333 -0.0333333 -0.0333333 -0.0333333 -0.0333333 -0.0333333
-0.0333333 -0.0333333 -0.0333333 -0.0333333 -0.0333333 -0.0333333 -0.0333333
-0.0333333 -0.0333333 -0.0333333 -0.0333333 -0.0333333 -0.0333333 -0.0333333
-0.0333333 -0.0333333 -0.0333333 -0.0333333 -0.0333333 -0.0333333 -0.0333333
-0.0333333 -0.0333333 -0.0333333 -0.0333333 -0.0333333 -0.0333333 -0.0333333
-0.0333333 -0.0333333 -0.0333333 -0.0333333 -0.0333333 -0.0333333 -0.0333333
-0.0333333 -0.0333333 -0.0333333 -0.0333333 0 0 0 0 0 0 0 0 0 0 0 0
0 0 0 0 0 0 0 0 0 0 0 0 0 0 0 0 0 0 0 0 0 0 0 0 0 0 0 0 0 0 0 0 0 0
0 0 0 0 0 0 0 0 0 0 0 0 0 0 0 0 0 0 0 0 0 0 0 0 0 0 0 0 0 0 0 0 0 0
0 0 0 0 0 0 0 0 0 0 0 0 0 0 0 0 0 0 0 0 0 0 0 0 0 0 0 0 0 0 0 0 0 0
0 0 0 0 0 0 0 0 0 0 0 0 0 0 0 0 0 0 0 0 0 0 0 0 0 0 0 0 0 0 0 0 0 0
0 0 0 0 0 0 0 0 0 0 0 0 0 0 0 0 0 0 0 0 0 0 0 0 0 0 0 0 0 0 0 0 0 0
0 0 0 0 0 0 0 0 0 0 0 0 0 0 0 0 0 0 0 0 0 0 0 0 0 0 0 0 0 0 0 0 0 0
0 0 0 0 0 0 0 0 0 0 0 0 0 0 0 0 0 0 0 0 0 0 0 0 0 0 0 0 0 0 0 0 0 0
0 0 0 0 0 0 0 0 0 0 0 0 0 0 0 0;
#X coords 0 10 400 -10 400 140 1 0 0;
#X restore 14 26 graph;
#X restore 707 330 pd storage;
#X obj 805 52 f;
#X obj 124 -10 gemhead;
#X obj -81 103 spigot;
#X obj 124 418 spigot;
#X obj -48 40 expr !$f1;
#X obj -48 62 tgl 15 0 empty empty empty 17 7 0 10 -262144 -1 -1 1
1;
#X msg -80 463 draw fill;
#X obj 124 498 curve3d;
#X msg -80 481 grid 40 40;
#X obj -80 445 loadbang;
#X msg 359 331 set 1 0 \$1 \$2 0;
#X msg 463 329 set 0 0 \$1 \$2 0;
#X msg 463 481 set 0 1 \$1 \$2 0;
#X msg 359 481 set 1 1 \$1 \$2 0;
#X msg 252 8 0;
#X obj 252 -10 loadbang;
#X floatatom 21 250 5 0 0 0 - #0-rX -;
#X floatatom 54 250 5 0 0 0 - #0-rY -;
#X floatatom 87 250 5 0 0 0 - #0-rZ -;
#X floatatom 20 197 5 0 0 0 - #0-tX -;
#X floatatom 53 197 5 0 0 0 - #0-tY -;
#X floatatom 86 197 5 0 0 0 - #0-tZ -;
#X obj -81 266 rotateXYZ 0 0 0;
#X obj -81 213 translateXYZ 0 0 0;
#X obj -81 162 scale;
#X floatatom 21 146 5 0 0 0 - #0-sX -;
#X obj 157 390 tgl 15 0 empty \$0-plano empty 17 7 0 10 -262144 -1
-1 0 1;
#X obj 124 266 rotateXYZ 0 0 0;
#X obj 124 213 translateXYZ 0 0 0;
#X obj 124 162 scale;
#X msg 252 77 0;
#X msg 252 44 1;
#X obj 235 29 bng 15 250 50 0 empty \$0-reset empty 17 7 0 10 -262144
-1 -1;
#X floatatom 359 266 5 0 0 0 - #0-aiX -;
#X floatatom 637 257 5 0 0 0 - #0-aiX -;
#X floatatom 393 266 5 0 0 0 - #0-aiY -;
#X floatatom 637 239 5 0 0 0 - #0-aiY -;
#X floatatom 669 257 5 0 0 0 - #0-adX -;
#X floatatom 669 239 5 0 0 0 - #0-adY -;
#X floatatom 463 266 5 0 0 0 - #0-adX -;
#X floatatom 498 266 5 0 0 0 - #0-adY -;
#X floatatom 701 257 5 0 0 0 - #0-abdX -;
#X floatatom 701 239 5 0 0 0 - #0-abdY -;
#X floatatom 463 421 5 0 0 0 - #0-abdX -;
#X floatatom 496 421 5 0 0 0 - #0-abdY -;
#X floatatom 359 422 5 0 0 0 - #0-abiX -;
#X floatatom 393 422 5 0 0 0 - #0-abiY -;
#X floatatom 733 257 5 0 0 0 - #0-abiX -;
#X floatatom 733 239 5 0 0 0 - #0-abiY -;
#X obj 350 10 cnv 15 450 200 empty empty empty 20 12 0 14 -199729 -66577
0;
#X obj 515 19 cnv 15 220 180 empty empty empty 20 12 0 14 -170602 -66577
0;
#X obj 368 25 tgl 15 0 \$0-plano empty Plano -6 -6 0 10 -232576 -1
-1 0 1;
#X obj 372 94 hsl 128 10 -5 5 0 0 \$0-tX empty Posición -2 -8 0 10
-261682 -1 -1 6350 1;
#X obj 372 108 hsl 128 10 -5 5 0 0 \$0-tY empty empty -2 -8 0 10 -261682
-1 -1 6350 1;
#X obj 372 122 hsl 128 10 -5 5 0 0 \$0-tZ empty empty -2 -8 0 10 -261682
-1 -1 6350 1;
#X obj 372 157 hsl 128 10 0 360 0 0 \$0-rX empty Rotación -2 -8 0
10 -203904 -1 -1 0 1;
#X obj 372 171 hsl 128 10 0 360 0 0 \$0-rY empty empty -2 -8 0 10 -203904
-1 -1 0 1;
#X obj 372 185 hsl 128 10 0 360 0 0 \$0-rZ empty empty -2 -8 0 10 -203904
-1 -1 0 1;
#X text 355 89 X;
#X text 355 152 X;
#X text 355 103 Y;
#X text 355 117 Z;
#X text 355 166 Y;
#X text 355 179 Z;
#X obj 372 61 hsl 128 10 0 50 0 0 \$0-sX empty Escala -2 -8 0 10 -262130
-1 -1 254 1;
#X obj 413 25 bng 15 250 50 0 \$0-reset empty empty 17 7 0 10 -228856
-1 -1;
#X text 404 10 Reset;
#X floatatom 539 172 5 0 0 0 - - #0-aiX;
#X floatatom 571 172 5 0 0 0 - - #0-aiY;
#X floatatom 649 84 5 0 0 0 - - #0-abdX;
#X floatatom 681 84 5 0 0 0 - - #0-abdY;
#X floatatom 648 172 5 0 0 0 - - #0-adX;
#X floatatom 680 172 5 0 0 0 - - #0-adY;
#X floatatom 539 84 5 0 0 0 - - #0-abiX;
#X floatatom 571 84 5 0 0 0 - - #0-abiY;
#X obj 764 52 bng 20 250 50 0 empty empty empty 17 7 0 10 -261234 -262144
-1;
#X obj 764 32 bng 20 250 50 0 empty empty empty 17 7 0 10 -204786 -1
-1;
#X text 756 17 cargar;
#X text 752 69 guardar;
#X obj 549 130 grid grid1 40 -5 5 40 -5 5 1 0.1 0.1 5 5 527 186;
#X obj 656 130 grid grid1 40 -5 5 40 -5 5 1 0.1 0.1 5 5 724 196;
#X obj 656 42 grid grid1 40 -5 5 40 -5 5 1 0.1 0.1 5 5 726 22;
#X obj 549 42 grid grid1 40 -5 5 40 -5 5 1 0.1 0.1 5 5 504 -11;
#X text 523 23 Arriba Izquierda;
#X text 635 23 Arriba Derecha;
#X text 524 110 Abajo Izquierda;
#X text 637 111 Abajo Derecha;
#X obj 745 36 nbx 1 15 0 49 0 0 empty empty empty 0 -8 0 10 -204786
-1 -1 0 256;
#X msg 549 -10 color 110 110 110;
#X connect 0 0 22 0;
#X connect 1 0 0 0;
#X connect 2 0 24 0;
#X connect 3 0 2 0;
#X connect 4 0 14 0;
#X connect 5 0 23 0;
#X connect 6 0 5 0;
#X connect 7 0 25 0;
#X connect 8 0 7 0;
#X connect 9 0 79 0;
#X connect 9 1 80 0;
#X connect 9 2 83 0;
#X connect 9 3 84 0;
#X connect 9 4 81 0;
#X connect 9 5 82 0;
#X connect 9 6 85 0;
#X connect 9 7 86 0;
#X connect 12 0 9 0;
#X connect 13 0 41 0;
#X connect 14 0 36 0;
#X connect 15 0 19 0;
#X connect 16 0 17 0;
#X connect 17 0 14 1;
#X connect 18 0 19 0;
#X connect 20 0 19 0;
#X connect 21 0 18 0;
#X connect 21 0 20 0;
#X connect 22 0 19 0;
#X connect 23 0 19 0;
#X connect 24 0 19 0;
#X connect 25 0 19 0;
#X connect 26 0 63 0;
#X connect 27 0 26 0;
#X connect 27 0 42 0;
#X connect 27 0 43 0;
#X connect 27 0 100 0;
#X connect 28 0 34 1;
#X connect 28 0 39 1;
#X connect 29 0 34 2;
#X connect 29 0 39 2;
#X connect 30 0 34 3;
#X connect 30 0 39 3;
#X connect 31 0 35 1;
#X connect 31 0 40 1;
#X connect 32 0 35 2;
#X connect 32 0 40 2;
#X connect 33 0 35 3;
#X connect 33 0 40 3;
#X connect 34 0 19 0;
#X connect 35 0 34 0;
#X connect 36 0 35 0;
#X connect 37 0 36 1;
#X connect 37 0 41 1;
#X connect 38 0 15 1;
#X connect 39 0 15 0;
#X connect 40 0 39 0;
#X connect 41 0 40 0;
#X connect 42 0 64 0;
#X connect 42 0 65 0;
#X connect 42 0 66 0;
#X connect 42 0 67 0;
#X connect 42 0 68 0;
#X connect 42 0 69 0;
#X connect 43 0 76 0;
#X connect 44 0 43 0;
#X connect 44 0 42 0;
#X connect 45 0 0 0;
#X connect 46 0 10 0;
#X connect 47 0 1 0;
#X connect 47 0 0 1;
#X connect 48 0 10 1;
#X connect 49 0 10 2;
#X connect 50 0 10 3;
#X connect 51 0 5 0;
#X connect 52 0 6 0;
#X connect 52 0 5 1;
#X connect 53 0 10 4;
#X connect 54 0 10 5;
#X connect 55 0 2 0;
#X connect 56 0 3 0;
#X connect 56 0 2 1;
#X connect 57 0 7 0;
#X connect 58 0 8 0;
#X connect 58 0 7 1;
#X connect 59 0 10 6;
#X connect 60 0 10 7;
#X connect 63 0 16 0;
#X connect 87 0 10 9;
#X connect 88 0 12 0;
#X connect 91 0 79 0;
#X connect 91 1 80 0;
#X connect 92 0 83 0;
#X connect 92 1 84 0;
#X connect 93 0 81 0;
#X connect 93 1 82 0;
#X connect 94 0 85 0;
#X connect 94 1 86 0;
#X connect 99 0 10 8;
#X connect 99 0 12 1;
#X connect 100 0 94 0;
#X connect 100 0 93 0;
#X connect 100 0 91 0;
#X connect 100 0 92 0;
#X coords 0 -1 1 1 450 200 2 350 10;
